<svg width="11" height="155" viewBox="0 0 11 155" fill="none" xmlns="http://www.w3.org/2000/svg">
<path id="FRONTEND" d="M2.55433 11V0.0909088H8.86648V0.985795H3.55043V5.09268H8.37109V5.98757H3.55043V11H2.55433ZM2.21742 29V18.0909H5.73837C6.51252 18.0909 7.15882 18.2312 7.67729 18.5117C8.19931 18.7887 8.59171 19.174 8.85449 19.6676C9.12083 20.1577 9.254 20.7205 9.254 21.3562C9.254 21.9918 9.12083 22.5529 8.85449 23.0394C8.59171 23.5259 8.20108 23.9059 7.68262 24.1793C7.16415 24.4528 6.5214 24.5895 5.75435 24.5895H2.75542V23.6786H5.72772C6.2959 23.6786 6.7682 23.5845 7.14462 23.3963C7.52459 23.2081 7.80691 22.94 7.99157 22.592C8.17978 22.244 8.27388 21.832 8.27388 21.3562C8.27388 20.8803 8.17978 20.4648 7.99157 20.1097C7.80336 19.7511 7.51927 19.4741 7.13929 19.2788C6.76287 19.0835 6.28702 18.9858 5.71174 18.9858H3.21351V29H2.21742ZM7.02743 24.0781L9.71209 29H8.56152L5.9035 24.0781H7.02743ZM10.2161 41.5455C10.2161 42.6818 10.0137 43.6708 9.60889 44.5124C9.20406 45.3505 8.64653 46.0004 7.9363 46.462C7.22963 46.9201 6.41642 47.1491 5.49667 47.1491C4.57693 47.1491 3.76194 46.9201 3.05171 46.462C2.34504 46.0004 1.78928 45.3505 1.38445 44.5124C0.983176 43.6708 0.782537 42.6818 0.782537 41.5455C0.782537 40.4091 0.983176 39.4219 1.38445 38.5838C1.78928 37.7422 2.34681 37.0923 3.05704 36.6342C3.76727 36.1726 4.58048 35.9418 5.49667 35.9418C6.41642 35.9418 7.22963 36.1726 7.9363 36.6342C8.64653 37.0923 9.20406 37.7422 9.60889 38.5838C10.0137 39.4219 10.2161 40.4091 10.2161 41.5455ZM9.24667 41.5455C9.24667 40.5689 9.08332 39.7326 8.75661 39.0366C8.42991 38.337 7.98424 37.8026 7.41961 37.4332C6.85498 37.0639 6.214 36.8793 5.49667 36.8793C4.78289 36.8793 4.14369 37.0639 3.57906 37.4332C3.01443 37.8026 2.56698 38.3352 2.23673 39.0312C1.91002 39.7273 1.74667 40.5653 1.74667 41.5455C1.74667 42.522 1.91002 43.3583 2.23673 44.0543C2.56343 44.7504 3.0091 45.2848 3.57373 45.6577C4.13836 46.027 4.77934 46.2116 5.49667 46.2116C6.214 46.2116 6.85498 46.027 7.41961 45.6577C7.98779 45.2884 8.43524 44.7557 8.76194 44.0597C9.08865 43.3601 9.25022 42.522 9.24667 41.5455ZM9.74672 54.0909V65H8.77726L2.33194 55.8647H2.24672V65H1.25062V54.0909H2.21476L8.68137 63.2369H8.7666V54.0909H9.74672ZM1.54226 72.9858V72.0909H9.45241V72.9858H5.99538V83H4.99929V72.9858H1.54226ZM2.49574 119V108.091H8.82386V108.986H3.49183V113.093H8.48828V113.988H3.49183V118.105H8.9304V119H2.49574ZM9.74672 126.091V137H8.77726L2.33194 127.865H2.24672V137H1.25062V126.091H2.21476L8.68137 135.237H8.7666V126.091H9.74672ZM4.76159 155H1.56556V144.091H4.95335C5.99383 144.091 6.88339 144.308 7.62203 144.741C8.36421 145.174 8.9324 145.795 9.32657 146.605C9.72075 147.415 9.91784 148.386 9.91784 149.519C9.91784 150.662 9.71542 151.644 9.31059 152.464C8.90931 153.281 8.32338 153.908 7.55278 154.345C6.78573 154.782 5.85534 155 4.76159 155ZM2.56166 154.105H4.70299C5.64049 154.105 6.42529 153.92 7.0574 153.551C7.6895 153.182 8.16357 152.654 8.47963 151.969C8.79568 151.284 8.9537 150.467 8.9537 149.519C8.95015 148.578 8.7939 147.768 8.48495 147.09C8.17955 146.412 7.72501 145.891 7.12132 145.529C6.52117 145.167 5.77899 144.986 4.89475 144.986H2.56166V154.105Z" fill="#2EB1EB"/>
</svg>
