<svg width="1440" height="321" viewBox="0 0 1440 321" fill="none" xmlns="http://www.w3.org/2000/svg">
<path fill-rule="evenodd" clip-rule="evenodd" d="M-191.03 51.6838L-48.1946 42.5303C92.5083 33.4022 378.181 15.0951 662.069 26.7372C945.962 38.3789 1232.33 79.919 1516.35 102.782C1800.37 125.645 2086.31 129.781 2227.14 131.874L2370.11 133.942L2371.13 221.219L2228.21 222.891C2087.42 224.539 1801.57 227.884 1517.86 231.204C1234.14 234.524 948.296 237.869 664.579 241.189C380.865 244.509 95.0178 247.854 -45.7726 249.501L-188.696 251.174L-191.03 51.6838Z" fill="#D6B538" fill-opacity="0.5"/>
<path fill-rule="evenodd" clip-rule="evenodd" d="M2370.59 175.001L2264 182.898C2157.43 190.794 1944.26 206.587 1731.18 229.029C1518.09 251.47 1305.08 280.56 1091.92 296.353C878.761 312.147 665.438 314.643 451.886 297.194C238.335 279.745 24.5485 242.35 -82.3436 223.653L-189.237 204.956L-189.47 185.011L-82.8104 183.763C23.8483 182.514 237.168 180.018 450.486 177.522C663.804 175.026 877.127 172.529 1090.44 170.033C1303.76 167.537 1517.08 165.041 1730.4 162.545C1943.71 160.048 2157.04 157.552 2263.69 156.304L2370.35 155.056L2370.59 175.001Z" fill="#D6B538" fill-opacity="0.4"/>
<path fill-rule="evenodd" clip-rule="evenodd" d="M-190.339 110.727L-83.6376 113.074C23.0632 115.42 236.467 120.112 449.953 131.994C663.44 143.875 877.015 162.945 1090.29 156.854C1303.56 150.763 1516.55 119.512 1729.61 95.4499C1942.68 71.3875 2155.83 54.5138 2262.4 46.0773L2368.98 37.6402L2370.75 188.603L2264.08 189.851C2157.43 191.099 1944.11 193.596 1730.79 196.092C1517.48 198.588 1304.15 201.084 1090.83 203.581C877.519 206.077 664.197 208.573 450.879 211.069C237.56 213.566 24.2409 216.062 -82.4178 217.31L-189.078 218.558L-190.339 110.727Z" fill="#D6B538" fill-opacity="0.4"/>
<path fill-rule="evenodd" clip-rule="evenodd" d="M-190.21 121.814L-83.5941 116.785C23.0203 111.757 236.256 102.077 449.406 85.2132C662.552 67.972 875.622 43.9248 1088.85 34.2449C1302.08 24.187 1515.49 29.2524 1728.93 37.3427C1942.38 45.8109 2155.88 58.0601 2262.61 63.9953L2369.36 69.931L2370.63 178.819L2263.97 180.067C2157.32 181.315 1943.99 183.811 1730.68 186.307C1517.36 188.804 1304.04 191.3 1090.72 193.796C877.405 196.292 664.083 198.789 450.764 201.285C237.446 203.781 24.1264 206.277 -82.5323 207.525L-189.192 208.773L-190.21 121.814Z" fill="url(#paint0_linear_7_3)" fill-opacity="0.6"/>
<path fill-rule="evenodd" clip-rule="evenodd" d="M2370.07 130.737L2263.49 138.634C2156.91 146.53 1943.74 162.324 1730.66 184.765C1517.58 207.207 1304.56 236.297 1091.4 252.09C878.243 267.883 664.92 270.379 451.369 252.93C237.817 235.481 24.0306 198.086 -82.8615 179.389L-189.755 160.692L-189.988 140.747L-83.3283 139.499C23.3304 138.251 236.65 135.754 449.968 133.258C663.287 130.762 876.609 128.266 1089.92 125.769C1303.24 123.273 1516.57 120.777 1729.88 118.281C1943.2 115.785 2156.52 113.288 2263.17 112.04L2369.84 110.792L2370.07 130.737Z" fill="url(#paint1_linear_7_3)" fill-opacity="0.6"/>
<defs>
<linearGradient id="paint0_linear_7_3" x1="1088.82" y1="31.1846" x2="1090.72" y2="193.796" gradientUnits="userSpaceOnUse">
<stop stop-color="#D6B538"/>
<stop offset="1" stop-color="#366ED1" stop-opacity="0"/>
</linearGradient>
<linearGradient id="paint1_linear_7_3" x1="1091.51" y1="261.357" x2="1089.92" y2="125.769" gradientUnits="userSpaceOnUse">
<stop stop-color="#D6B538"/>
<stop offset="1" stop-color="#366ED1" stop-opacity="0"/>
</linearGradient>
</defs>
</svg>
